<?xml version="1.0" encoding="UTF-8" standalone="no"?>
<!-- Created with Inkscape (http://www.inkscape.org/) -->

<svg
   version="1.1"
   id="svg1"
   width="74.112534"
   height="21.891867"
   viewBox="0 0 74.112534 21.891867"
   xmlns="http://www.w3.org/2000/svg"
   xmlns:svg="http://www.w3.org/2000/svg">
   <g id="silkscreen">
       <path
       id="path5"
       d="M 0,0 H 55.5844 V 16.4189 H 0 Z M 55.0844,15.9189 H 0.5 L 0.499999,0.5 l 54.584401,3e-6 z"
       style="fill:#ffffff;fill-opacity:1;fill-rule:evenodd;stroke:none"
       transform="matrix(1.3333333,0,0,-1.3333333,0,21.891867)" />

   </g>
  <g
     id="copper0">
    <path
       id="path1"
       d="m 8.19481,12.7158 c 2.48709,0 4.50629,-2.0193 4.50629,-4.50636 0,-2.48711 -2.0192,-4.50633 -4.50629,-4.50633 -2.48711,0 -4.50633,2.01922 -4.50633,4.50633 0,2.48706 2.01922,4.50636 4.50633,4.50636 z m 0,-1.4 c -1.71443,0 -3.10633,-1.39194 -3.10633,-3.10636 0,-1.71443 1.3919,-3.10633 3.10633,-3.10633 1.71442,0 3.10629,1.3919 3.10629,3.10633 0,1.71442 -1.39187,3.10636 -3.10629,3.10636 z"
       style="fill:#f7bd13;fill-opacity:1;fill-rule:evenodd;stroke:none"
       transform="matrix(1.3333333,0,0,-1.3333333,0,21.891867)" />
    <path
       id="path2"
       d="m 21.2597,12.7158 c 2.4872,0 4.5064,-2.0193 4.5064,-4.50636 0,-2.48711 -2.0192,-4.50633 -4.5064,-4.50633 -2.4871,0 -4.5063,2.01922 -4.5063,4.50633 0,2.48706 2.0192,4.50636 4.5063,4.50636 z m 0,-1.4 c -1.7144,0 -3.1063,-1.39194 -3.1063,-3.10636 0,-1.71443 1.3919,-3.10633 3.1063,-3.10633 1.7145,0 3.1064,1.3919 3.1064,3.10633 0,1.71442 -1.3919,3.10636 -3.1064,3.10636 z"
       style="fill:#f7bd13;fill-opacity:1;fill-rule:evenodd;stroke:none"
       transform="matrix(1.3333333,0,0,-1.3333333,0,21.891867)" />
    <path
       id="path3"
       d="m 34.3247,12.7158 c 2.4871,0 4.5063,-2.0193 4.5063,-4.50636 0,-2.48711 -2.0192,-4.50633 -4.5063,-4.50633 -2.4871,0 -4.5063,2.01922 -4.5063,4.50633 0,2.48706 2.0192,4.50636 4.5063,4.50636 z m 0,-1.4 c -1.7144,0 -3.1063,-1.39194 -3.1063,-3.10636 0,-1.71443 1.3919,-3.10633 3.1063,-3.10633 1.7144,0 3.1063,1.3919 3.1063,3.10633 0,1.71442 -1.3919,3.10636 -3.1063,3.10636 z"
       style="fill:#f7bd13;fill-opacity:1;fill-rule:evenodd;stroke:none"
       transform="matrix(1.3333333,0,0,-1.3333333,0,21.891867)" />
    <path
       id="path4"
       d="m 47.3896,12.7158 c 2.4871,0 4.5063,-2.0193 4.5063,-4.50636 0,-2.48711 -2.0192,-4.50633 -4.5063,-4.50633 -2.4871,0 -4.5063,2.01922 -4.5063,4.50633 0,2.48706 2.0192,4.50636 4.5063,4.50636 z m 0,-1.4 c -1.7144,0 -3.1063,-1.39194 -3.1063,-3.10636 0,-1.71443 1.3919,-3.10633 3.1063,-3.10633 1.7144,0 3.1063,1.3919 3.1063,3.10633 0,1.71442 -1.3919,3.10636 -3.1063,3.10636 z"
       style="fill:#f7bd13;fill-opacity:1;fill-rule:evenodd;stroke:none"
       transform="matrix(1.3333333,0,0,-1.3333333,0,21.891867)" />
  </g>
</svg>
