<svg xmlns="http://www.w3.org/2000/svg" xmlns:xlink="http://www.w3.org/1999/xlink" version="1.1" width="29.1854" height="15.8473" viewBox="0 0 29.1854 15.8473">
<path transform="matrix(1,0,0,-1,0,15.8473)" d="M7.35819 1.30886C7.71938 1.30886 8.01262 1.01562 8.01262 .654432 8.01262 .293241 7.71938 0 7.35819 0 6.997 0 6.70376 .293241 6.70376 .654432 6.70376 1.01562 6.997 1.30886 7.35819 1.30886Z" fill-rule="evenodd"/>
<path transform="matrix(1,0,0,-1,0,15.8473)" stroke-width=".7" stroke-linecap="round" stroke-linejoin="round" fill="none" stroke="#000000" d="M7.35819 .654432 20.005 4.35312"/>
<path transform="matrix(1,0,0,-1,0,15.8473)" stroke-width=".7" stroke-linecap="round" stroke-linejoin="round" fill="none" stroke="#555555" d="M.35 .654432H7.35819"/>
<path transform="matrix(1,0,0,-1,0,15.8473)" stroke-width=".7" stroke-linecap="round" stroke-linejoin="round" fill="none" stroke="#000000" d="M20.005 .654432H21.8162"/>
<path transform="matrix(1,0,0,-1,0,15.8473)" d="M21.8162 1.30886C22.1774 1.30886 22.4707 1.01562 22.4707 .654432 22.4707 .293241 22.1774 0 21.8162 0 21.4551 0 21.1618 .293241 21.1618 .654432 21.1618 1.01562 21.4551 1.30886 21.8162 1.30886Z" fill-rule="evenodd"/>
<path transform="matrix(1,0,0,-1,0,15.8473)" stroke-width=".7" stroke-linecap="round" stroke-linejoin="round" fill="none" stroke="#555555" d="M28.8354 .654432H21.8162"/>
<text fill="#555555" xml:space="preserve" transform="matrix(1 0 -0 1 3.1341 14.142349)" font-size="2" font-family="OCRA"><tspan y="0" x="0">1</tspan></text>
<text fill="#555555" xml:space="preserve" transform="matrix(1 0 -0 1 24.4986 14.142349)" font-size="2" font-family="OCRA"><tspan y="0" x="0">2</tspan></text>
<path transform="matrix(1,0,0,-1,0,15.8473)" d="M10.7443 11.148 18.6542 15.1029V7.19303ZM12.3096 11.148 17.9542 8.32566C17.9542 8.32566 17.9542 13.9703 17.9542 13.9702Z" fill-rule="evenodd"/>
<path transform="matrix(1,0,0,-1,0,15.8473)" stroke-width=".7" stroke-linecap="round" stroke-linejoin="round" fill="none" stroke="#000000" d="M10.9686 15.4973V6.79865"/>
<path transform="matrix(1,0,0,-1,0,15.8473)" stroke-width=".4" stroke-linecap="round" stroke-linejoin="round" fill="none" stroke="#000000" d="M11.629 11.148H18.1977"/>
<path transform="matrix(1,0,0,-1,0,15.8473)" stroke-width=".7" stroke-linecap="round" stroke-linejoin="round" fill="none" stroke="#555555" d="M2.01443 11.148H10.9878"/>
<path transform="matrix(1,0,0,-1,0,15.8473)" stroke-width=".7" stroke-linecap="round" stroke-linejoin="round" fill="none" stroke="#555555" d="M18.1977 11.148H27.171"/>
<text fill="#555555" xml:space="preserve" transform="matrix(1 0 -0 1 22.3395 3.6345998)" font-size="2" font-family="OCRA"><tspan y="0" x="0">4</tspan></text>
<text fill="#555555" xml:space="preserve" transform="matrix(1 0 -0 1 5.65271 3.6345998)" font-size="2" font-family="OCRA"><tspan y="0" x="0">3</tspan></text>
</svg>
